<svg width="24" height="24" viewBox="0 0 24 24" fill="none" xmlns="http://www.w3.org/2000/svg">
<g clip-path="url(#clip0_2952_3447)">
<path opacity="0.3" d="M19.47 9.15953C18.37 6.28953 15.67 4.20953 12.46 4.01953L14.46 8.72953L19.47 9.15953ZM11.54 4.01953C8.32 4.19953 5.62 6.28953 4.52 9.16953L9.54 8.73953L11.54 4.01953ZM4.23 10.1395C4.08 10.7395 4 11.3595 4 11.9995C4 14.4795 5.14 16.6995 6.91 18.1695L8.02 13.4195L4.23 10.1395ZM19.77 10.1295L15.98 13.4095L17.08 18.1695C18.86 16.6995 20 14.4795 20 11.9995C20 11.3595 19.91 10.7295 19.77 10.1295ZM7.84 18.8195C9.05 19.5595 10.47 19.9995 11.99 19.9995C13.52 19.9995 14.94 19.5595 16.16 18.8195L12 16.3095L7.84 18.8195Z" fill="#989898"/>
<path d="M11.99 2C6.47 2 2 6.48 2 12C2 17.52 6.47 22 11.99 22C17.52 22 22 17.52 22 12C22 6.48 17.52 2 11.99 2ZM19.47 9.16L14.46 8.73L12.46 4.02C15.67 4.21 18.37 6.29 19.47 9.16ZM12 8.06L13.09 10.62L15.87 10.86L13.76 12.69L14.39 15.42L12 13.98L9.61 15.42L10.24 12.7L8.13 10.87L10.91 10.63L12 8.06ZM11.54 4.02L9.54 8.74L4.52 9.17C5.62 6.29 8.32 4.2 11.54 4.02ZM4 12C4 11.36 4.08 10.74 4.23 10.14L8.02 13.42L6.91 18.17C5.14 16.7 4 14.48 4 12ZM11.99 20C10.47 20 9.05 19.56 7.84 18.82L12 16.31L16.16 18.82C14.94 19.56 13.52 20 11.99 20ZM17.09 18.17L15.99 13.41L19.78 10.13C19.91 10.73 20 11.36 20 12C20 14.48 18.86 16.7 17.09 18.17Z" fill="#989898"/>
</g>
<defs>
<clipPath id="clip0_2952_3447">
<rect width="24" height="24" fill="white"/>
</clipPath>
</defs>
</svg>
