<svg width="44" height="44" viewBox="0 0 44 44" fill="none" xmlns="http://www.w3.org/2000/svg">
<path d="M42.4821 22C42.4821 33.3125 33.3119 42.4827 21.9994 42.4827C10.6868 42.4827 1.5166 33.3125 1.5166 22C1.5166 10.6874 10.6868 1.51721 21.9994 1.51721C33.3119 1.51721 42.4821 10.6874 42.4821 22Z" fill="#FFBB0D"/>
<path fill-rule="evenodd" clip-rule="evenodd" d="M44 22C44 34.1501 34.1501 44 22 44C9.84993 44 0 34.1501 0 22C0 9.84993 9.84993 0 22 0C34.1501 0 44 9.84993 44 22ZM22 42.4828C33.3125 42.4828 42.4828 33.3125 42.4828 22C42.4828 10.6874 33.3125 1.51724 22 1.51724C10.6874 1.51724 1.51724 10.6874 1.51724 22C1.51724 33.3125 10.6874 42.4828 22 42.4828Z" fill="#E89B05"/>
<path fill-rule="evenodd" clip-rule="evenodd" d="M3.03401 22.7586C2.83281 22.7586 2.63985 22.6787 2.49758 22.5364C2.35532 22.3942 2.27539 22.2012 2.27539 22C2.27539 11.1062 11.1057 2.27588 21.9995 2.27588C22.2007 2.27588 22.3937 2.3558 22.536 2.49807C22.6782 2.64034 22.7582 2.8333 22.7582 3.0345C22.7582 3.2357 22.6782 3.42866 22.536 3.57093C22.3937 3.7132 22.2007 3.79312 21.9995 3.79312C11.944 3.79312 3.79263 11.9445 3.79263 22C3.79263 22.2012 3.71271 22.3942 3.57044 22.5364C3.42817 22.6787 3.23521 22.7586 3.03401 22.7586Z" fill="#FFD15C"/>
<path fill-rule="evenodd" clip-rule="evenodd" d="M40.9654 21.2414C41.1665 21.2414 41.3595 21.3213 41.5018 21.4636C41.644 21.6059 41.724 21.7988 41.724 22C41.724 32.8938 32.8936 41.7242 21.9998 41.7242C21.7986 41.7242 21.6057 41.6442 21.4634 41.502C21.3211 41.3597 21.2412 41.1667 21.2412 40.9655C21.2412 40.7643 21.3211 40.5714 21.4634 40.4291C21.6057 40.2868 21.7986 40.2069 21.9998 40.2069C32.0553 40.2069 40.2067 32.0555 40.2067 22C40.2067 21.7988 40.2867 21.6059 40.4289 21.4636C40.5712 21.3213 40.7642 21.2414 40.9654 21.2414Z" fill="#EEAD04"/>
<path d="M37.173 22C37.173 30.3797 30.3803 37.1724 22.0005 37.1724C13.6208 37.1724 6.82812 30.3797 6.82812 22C6.82812 13.6203 13.6208 6.82761 22.0005 6.82761C30.3803 6.82761 37.173 13.6203 37.173 22Z" fill="#FFDD28"/>
<path fill-rule="evenodd" clip-rule="evenodd" d="M38.6899 22C38.6899 31.2172 31.2174 38.6896 22.0002 38.6896C12.783 38.6896 5.31055 31.2172 5.31055 22C5.31055 12.7827 12.783 5.31033 22.0002 5.31033C31.2174 5.31033 38.6899 12.7827 38.6899 22ZM22.0002 37.1724C30.3799 37.1724 37.1726 30.3797 37.1726 22C37.1726 13.6203 30.3799 6.82757 22.0002 6.82757C13.6205 6.82757 6.82779 13.6203 6.82779 22C6.82779 30.3797 13.6205 37.1724 22.0002 37.1724Z" fill="#E89B05"/>
<path fill-rule="evenodd" clip-rule="evenodd" d="M21.9998 34.8966C29.1225 34.8966 34.8964 29.1227 34.8964 22C34.8964 21.7988 34.9763 21.6059 35.1186 21.4636C35.2608 21.3213 35.4538 21.2414 35.655 21.2414C35.8562 21.2414 36.0492 21.3213 36.1914 21.4636C36.3337 21.6059 36.4136 21.7988 36.4136 22C36.4136 29.9602 29.96 36.4138 21.9998 36.4138C21.7986 36.4138 21.6057 36.3339 21.4634 36.1916C21.3211 36.0493 21.2412 35.8564 21.2412 35.6552C21.2412 35.454 21.3211 35.261 21.4634 35.1188C21.6057 34.9765 21.7986 34.8966 21.9998 34.8966Z" fill="#ECC704"/>
<path fill-rule="evenodd" clip-rule="evenodd" d="M21.9997 9.10345C14.877 9.10345 9.10318 14.8773 9.10318 22C9.10318 22.2012 9.02325 22.3942 8.88098 22.5364C8.73872 22.6787 8.54576 22.7586 8.34456 22.7586C8.14336 22.7586 7.9504 22.6787 7.80813 22.5364C7.66586 22.3942 7.58594 22.2012 7.58594 22C7.58594 14.0398 14.0395 7.58621 21.9997 7.58621C22.2009 7.58621 22.3939 7.66614 22.5362 7.80841C22.6784 7.95068 22.7584 8.14363 22.7584 8.34483C22.7584 8.54603 22.6784 8.73899 22.5362 8.88126C22.3939 9.02353 22.2009 9.10345 21.9997 9.10345Z" fill="#FFEF9C"/>
<path d="M13.6553 20.0276L18.8708 18.9655L20.4358 16.3103L22.0001 13.6552L25.1294 18.9655L30.3449 20.0276L26.1725 24.2758L27.2156 29.5862L22.0001 26.931L16.7846 29.5862L17.8277 24.2758L13.6553 20.0276Z" fill="#FFEF9C"/>
<path fill-rule="evenodd" clip-rule="evenodd" d="M18.8715 18.9655L22.0008 13.6552L25.1301 18.9655L30.3456 20.0276L26.1732 24.2758L27.2163 29.5862L22.0008 26.931L16.7853 29.5862L17.8284 24.2758L13.656 20.0276L18.8715 18.9655ZM16.186 24.7689L12.5727 21.0896C12.3816 20.8948 12.2466 20.6521 12.1819 20.387C12.1172 20.1219 12.1252 19.8443 12.2051 19.5834C12.2849 19.3225 12.4336 19.0879 12.6356 18.9044C12.8375 18.7209 13.0852 18.5952 13.3525 18.5407L17.9065 17.6129L20.693 12.8844C20.827 12.6569 21.0181 12.4684 21.2473 12.3374C21.4766 12.2064 21.736 12.1375 22.0001 12.1375C22.2641 12.1375 22.5235 12.2064 22.7528 12.3374C22.982 12.4684 23.1731 12.6569 23.3072 12.8844L26.0936 17.6129L30.6491 18.5407C30.9166 18.5951 31.1644 18.7208 31.3665 18.9043C31.5686 19.0879 31.7174 19.3226 31.7972 19.5836C31.8771 19.8447 31.885 20.1224 31.8202 20.3876C31.7554 20.6528 31.6202 20.8956 31.429 21.0904L27.8172 24.7682L28.7063 29.2934C28.7611 29.5726 28.7364 29.8616 28.6349 30.1274C28.5333 30.3932 28.3591 30.6251 28.132 30.7967C27.905 30.9682 27.6343 31.0724 27.3508 31.0974C27.0674 31.1224 26.7826 31.0672 26.529 30.938L22.0008 28.6334L17.4734 30.938C17.2199 31.0671 16.9352 31.1223 16.6518 31.0973C16.3684 31.0723 16.0978 30.9682 15.8708 30.7968C15.6438 30.6254 15.4695 30.3936 15.3679 30.1279C15.2663 29.8622 15.2414 29.5733 15.2961 29.2941L16.1852 24.7682L16.186 24.7689Z" fill="#E89B05"/>
</svg>
