<svg width="48" height="48" viewBox="0 0 48 48" fill="none" xmlns="http://www.w3.org/2000/svg">
<path d="M14.7417 7.43317C14.7417 9.04416 14.4213 10.4031 13.7806 11.5101C13.1398 12.6124 12.2751 13.4485 11.1863 14.0185C10.0976 14.5837 8.88354 14.8663 7.54426 14.8663C6.19535 14.8663 4.97652 14.5814 3.88775 14.0114C2.80381 13.4367 1.94147 12.5982 1.30073 11.496C0.66482 10.389 0.346863 9.03474 0.346863 7.43317C0.346863 5.82218 0.66482 4.46555 1.30073 3.3633C1.94147 2.25633 2.80381 1.42022 3.88775 0.854956C4.97652 0.284985 6.19535 0 7.54426 0C8.88354 0 10.0976 0.284985 11.1863 0.854956C12.2751 1.42022 13.1398 2.25633 13.7806 3.3633C14.4213 4.46555 14.7417 5.82218 14.7417 7.43317ZM10.6082 7.43317C10.6082 6.56644 10.4902 5.83631 10.2541 5.24279C10.0229 4.64455 9.67843 4.19235 9.22076 3.88616C8.76792 3.57527 8.20908 3.41982 7.54426 3.41982C6.87944 3.41982 6.3182 3.57527 5.86053 3.88616C5.40768 4.19235 5.06323 4.64455 4.82717 5.24279C4.59593 5.83631 4.48031 6.56644 4.48031 7.43317C4.48031 8.2999 4.59593 9.03239 4.82717 9.63062C5.06323 10.2241 5.40768 10.6764 5.86053 10.9872C6.3182 11.2934 6.87944 11.4465 7.54426 11.4465C8.20908 11.4465 8.76792 11.2934 9.22076 10.9872C9.67843 10.6764 10.0229 10.2241 10.2541 9.63062C10.4902 9.03239 10.6082 8.2999 10.6082 7.43317Z" fill="url(#paint0_linear_2_24)"/>
<path d="M28.3882 0.197841V14.6685H25.0352L19.6877 7.06575H19.601V14.6685H15.5832V0.197841H18.994L24.2547 7.77233H24.3703V0.197841H28.3882Z" fill="url(#paint1_linear_2_24)"/>
<path d="M29.2712 14.6685V0.197841H39.9372V3.3633H33.2891V5.85044H39.3881V9.0159H33.2891V11.503H39.9083V14.6685H29.2712Z" fill="url(#paint2_linear_2_24)"/>
<path d="M0 19.9443V16.7788H12.8628V19.9443H8.41142V31.2495H4.4514V19.9443H0Z" fill="url(#paint3_linear_2_24)"/>
<path d="M17.1151 31.2495L12.7505 16.7788H17.2308L19.2541 25.6816H19.3697L21.7689 16.7788H25.2953L27.6944 25.7099H27.8101L29.8334 16.7788H34.3137L29.9491 31.2495H26.1047L23.5899 23.1662H23.4743L20.9595 31.2495H17.1151Z" fill="url(#paint4_linear_2_24)"/>
<path d="M48 24.0141C48 25.6251 47.6796 26.9841 47.0389 28.0911C46.3982 29.1933 45.5334 30.0294 44.4447 30.5994C43.3559 31.1647 42.1419 31.4473 40.8026 31.4473C39.4537 31.4473 38.2349 31.1623 37.1461 30.5923C36.0621 30.0177 35.1998 29.1792 34.5591 28.0769C33.9232 26.97 33.6052 25.6157 33.6052 24.0141C33.6052 22.4031 33.9232 21.0465 34.5591 19.9443C35.1998 18.8373 36.0621 18.0012 37.1461 17.4359C38.2349 16.8659 39.4537 16.581 40.8026 16.581C42.1419 16.581 43.3559 16.8659 44.4447 17.4359C45.5334 18.0012 46.3982 18.8373 47.0389 19.9443C47.6796 21.0465 48 22.4031 48 24.0141ZM43.8666 24.0141C43.8666 23.1474 43.7485 22.4173 43.5125 21.8237C43.2812 21.2255 42.9368 20.7733 42.4791 20.4671C42.0263 20.1562 41.4674 20.0008 40.8026 20.0008C40.1378 20.0008 39.5765 20.1562 39.1189 20.4671C38.666 20.7733 38.3216 21.2255 38.0855 21.8237C37.8543 22.4173 37.7386 23.1474 37.7386 24.0141C37.7386 24.8809 37.8543 25.6133 38.0855 26.2116C38.3216 26.8051 38.666 27.2573 39.1189 27.5682C39.5765 27.8744 40.1378 28.0275 40.8026 28.0275C41.4674 28.0275 42.0263 27.8744 42.4791 27.5682C42.9368 27.2573 43.2812 26.8051 43.5125 26.2116C43.7485 25.6133 43.8666 24.8809 43.8666 24.0141Z" fill="url(#paint5_linear_2_24)"/>
<path d="M8.38251 37.8818C8.34397 37.4108 8.16331 37.0434 7.84054 36.7796C7.52258 36.5158 7.03842 36.3839 6.38805 36.3839C5.97374 36.3839 5.63411 36.4334 5.36914 36.5323C5.109 36.6265 4.9163 36.756 4.79104 36.9209C4.66578 37.0858 4.60075 37.2742 4.59593 37.4862C4.58629 37.6605 4.61761 37.8183 4.68987 37.9596C4.76695 38.0962 4.88739 38.221 5.05119 38.3341C5.21498 38.4424 5.42455 38.5413 5.67988 38.6308C5.9352 38.7203 6.23871 38.8004 6.59039 38.8711L7.80441 39.1254C8.62339 39.295 9.32434 39.5187 9.90726 39.7967C10.4902 40.0746 10.9671 40.402 11.3381 40.7788C11.709 41.1509 11.9812 41.5702 12.1546 42.0365C12.3329 42.5028 12.4244 43.0116 12.4292 43.5627C12.4244 44.5142 12.1811 45.3197 11.6994 45.9792C11.2176 46.6387 10.5287 47.1403 9.63266 47.4842C8.74142 47.8281 7.66952 48 6.41696 48C5.13068 48 4.00819 47.8139 3.0495 47.4418C2.09563 47.0697 1.35373 46.4974 0.823799 45.7248C0.298687 44.9476 0.0337228 43.9537 0.0289052 42.7431H3.84439C3.86848 43.1859 3.98169 43.558 4.18403 43.8595C4.38637 44.1609 4.6706 44.3894 5.03673 44.5448C5.40768 44.7003 5.84849 44.778 6.35915 44.778C6.78791 44.778 7.14681 44.7262 7.43587 44.6226C7.72492 44.5189 7.94412 44.3753 8.09346 44.1916C8.2428 44.0079 8.31989 43.7982 8.3247 43.5627C8.31989 43.3413 8.24521 43.1482 8.10069 42.9833C7.96098 42.8137 7.72974 42.663 7.40696 42.5311C7.08419 42.3945 6.6482 42.2673 6.099 42.1496L4.62484 41.8387C3.31447 41.5607 2.2811 41.0968 1.52475 40.4467C0.773214 39.792 0.399855 38.8993 0.404673 37.7688C0.399855 36.8502 0.650367 36.0471 1.15621 35.3594C1.66687 34.6669 2.37264 34.1276 3.27352 33.7413C4.17921 33.3551 5.21739 33.1619 6.38805 33.1619C7.5828 33.1619 8.61616 33.3574 9.48814 33.7484C10.3601 34.1394 11.0322 34.6905 11.5043 35.4018C11.9812 36.1083 12.2221 36.935 12.2269 37.8818H8.38251Z" fill="url(#paint6_linear_2_24)"/>
<path d="M12.9401 47.8304V33.3598H23.6062V36.5252H16.958V39.0124H23.057V42.1778H16.958V44.665H23.5773V47.8304H12.9401Z" fill="url(#paint7_linear_2_24)"/>
<path d="M24.5814 47.8304V33.3598H28.5992V44.665H34.5826V47.8304H24.5814Z" fill="url(#paint8_linear_2_24)"/>
<path d="M35.1892 47.8304V33.3598H39.207V44.665H45.1904V47.8304H35.1892Z" fill="url(#paint9_linear_2_24)"/>
<defs>
<linearGradient id="paint0_linear_2_24" x1="24" y1="0" x2="24" y2="48" gradientUnits="userSpaceOnUse">
<stop stop-color="#4A62A2"/>
<stop offset="1" stop-color="#2D4074"/>
</linearGradient>
<linearGradient id="paint1_linear_2_24" x1="24" y1="0" x2="24" y2="48" gradientUnits="userSpaceOnUse">
<stop stop-color="#4A62A2"/>
<stop offset="1" stop-color="#2D4074"/>
</linearGradient>
<linearGradient id="paint2_linear_2_24" x1="24" y1="0" x2="24" y2="48" gradientUnits="userSpaceOnUse">
<stop stop-color="#4A62A2"/>
<stop offset="1" stop-color="#2D4074"/>
</linearGradient>
<linearGradient id="paint3_linear_2_24" x1="24" y1="0" x2="24" y2="48" gradientUnits="userSpaceOnUse">
<stop stop-color="#4A62A2"/>
<stop offset="1" stop-color="#2D4074"/>
</linearGradient>
<linearGradient id="paint4_linear_2_24" x1="24" y1="0" x2="24" y2="48" gradientUnits="userSpaceOnUse">
<stop stop-color="#4A62A2"/>
<stop offset="1" stop-color="#2D4074"/>
</linearGradient>
<linearGradient id="paint5_linear_2_24" x1="24" y1="0" x2="24" y2="48" gradientUnits="userSpaceOnUse">
<stop stop-color="#4A62A2"/>
<stop offset="1" stop-color="#2D4074"/>
</linearGradient>
<linearGradient id="paint6_linear_2_24" x1="24" y1="0" x2="24" y2="48" gradientUnits="userSpaceOnUse">
<stop stop-color="#4A62A2"/>
<stop offset="1" stop-color="#2D4074"/>
</linearGradient>
<linearGradient id="paint7_linear_2_24" x1="24" y1="0" x2="24" y2="48" gradientUnits="userSpaceOnUse">
<stop stop-color="#4A62A2"/>
<stop offset="1" stop-color="#2D4074"/>
</linearGradient>
<linearGradient id="paint8_linear_2_24" x1="24" y1="0" x2="24" y2="48" gradientUnits="userSpaceOnUse">
<stop stop-color="#4A62A2"/>
<stop offset="1" stop-color="#2D4074"/>
</linearGradient>
<linearGradient id="paint9_linear_2_24" x1="24" y1="0" x2="24" y2="48" gradientUnits="userSpaceOnUse">
<stop stop-color="#4A62A2"/>
<stop offset="1" stop-color="#2D4074"/>
</linearGradient>
</defs>
</svg>
