<svg width="108" height="108" viewBox="0 0 108 108" fill="none" xmlns="http://www.w3.org/2000/svg">
<path d="M33.1687 16.7246C33.1687 20.3494 32.4479 23.4071 31.0063 25.8977C29.5646 28.3778 27.6189 30.2591 25.1692 31.5415C22.7195 32.8134 19.988 33.4493 16.9746 33.4493C13.9395 33.4493 11.1972 32.808 8.74744 31.5256C6.30856 30.2326 4.3683 28.346 2.92665 25.8659C1.49585 23.3753 0.780441 20.3282 0.780441 16.7246C0.780441 13.0999 1.49585 10.0475 2.92665 7.56742C4.3683 5.07674 6.30856 3.19549 8.74744 1.92365C11.1972 0.641217 13.9395 0 16.9746 0C19.988 0 22.7195 0.641217 25.1692 1.92365C27.6189 3.19549 29.5646 5.07674 31.0063 7.56742C32.4479 10.0475 33.1687 13.0999 33.1687 16.7246ZM23.8685 16.7246C23.8685 14.7745 23.6029 13.1317 23.0718 11.7963C22.5515 10.4502 21.7765 9.43278 20.7467 8.74387C19.7278 8.04436 18.4704 7.6946 16.9746 7.6946C15.4787 7.6946 14.2159 8.04436 13.1862 8.74387C12.1673 9.43278 11.3923 10.4502 10.8611 11.7963C10.3408 13.1317 10.0807 14.7745 10.0807 16.7246C10.0807 18.6748 10.3408 20.3229 10.8611 21.6689C11.3923 23.0043 12.1673 24.0218 13.1862 24.7213C14.2159 25.4102 15.4787 25.7547 16.9746 25.7547C18.4704 25.7547 19.7278 25.4102 20.7467 24.7213C21.7765 24.0218 22.5515 23.0043 23.0718 21.6689C23.6029 20.3229 23.8685 18.6748 23.8685 16.7246Z" fill="url(#paint0_linear_69_2730)"/>
<path d="M63.8734 0.445143V33.0041H56.3291L44.2973 15.8979H44.1022V33.0041H35.0621V0.445143H42.7365L54.5731 17.4877H54.8333V0.445143H63.8734Z" fill="url(#paint1_linear_69_2730)"/>
<path d="M65.8603 33.0041V0.445143H89.8588V7.56742H74.9004V13.1635H88.6231V20.2858H74.9004V25.8818H89.7938V33.0041H65.8603Z" fill="url(#paint2_linear_69_2730)"/>
<path d="M0 44.8746V37.7523H28.9413V44.8746H18.9257V70.3113H10.0157V44.8746H0Z" fill="url(#paint3_linear_69_2730)"/>
<path d="M38.5091 70.3113L28.6885 37.7523H38.7692L43.3218 57.7837H43.5819L48.98 37.7523H56.9145L62.3125 57.8473H62.5727L67.1252 37.7523H77.2059L67.3854 70.3113H58.7355L53.0773 52.124H52.8171L47.1589 70.3113H38.5091Z" fill="url(#paint4_linear_69_2730)"/>
<path d="M108 54.0318C108 57.6565 107.279 60.7142 105.838 63.2049C104.396 65.685 102.45 67.5662 100 68.8487C97.5508 70.1205 94.8192 70.7564 91.8059 70.7564C88.7708 70.7564 86.0284 70.1152 83.5787 68.8328C81.1398 67.5397 79.1996 65.6532 77.7579 63.1731C76.3271 60.6824 75.6117 57.6353 75.6117 54.0318C75.6117 50.4071 76.3271 47.3547 77.7579 44.8746C79.1996 42.3839 81.1398 40.5026 83.5787 39.2308C86.0284 37.9484 88.7708 37.3072 91.8059 37.3072C94.8192 37.3072 97.5508 37.9484 100 39.2308C102.45 40.5026 104.396 42.3839 105.838 44.8746C107.279 47.3547 108 50.4071 108 54.0318ZM98.6997 54.0318C98.6997 52.0817 98.4342 50.4389 97.903 49.1034C97.3828 47.7574 96.6077 46.7399 95.578 46.051C94.5591 45.3515 93.3017 45.0018 91.8059 45.0018C90.31 45.0018 89.0472 45.3515 88.0175 46.051C86.9986 46.7399 86.2235 47.7574 85.6924 49.1034C85.1721 50.4389 84.912 52.0817 84.912 54.0318C84.912 55.9819 85.1721 57.63 85.6924 58.9761C86.2235 60.3115 86.9986 61.329 88.0175 62.0285C89.0472 62.7174 90.31 63.0618 91.8059 63.0618C93.3017 63.0618 94.5591 62.7174 95.578 62.0285C96.6077 61.329 97.3828 60.3115 97.903 58.9761C98.4342 57.63 98.6997 55.9819 98.6997 54.0318Z" fill="url(#paint5_linear_69_2730)"/>
<path d="M18.8607 85.2342C18.7739 84.1743 18.3675 83.3476 17.6412 82.7541C16.9258 82.1606 15.8364 81.8638 14.3731 81.8638C13.4409 81.8638 12.6767 81.9751 12.0806 82.1976C11.4952 82.4096 11.0617 82.7011 10.7798 83.072C10.498 83.443 10.3517 83.8669 10.3408 84.3439C10.3192 84.736 10.3896 85.0911 10.5522 85.409C10.7256 85.7164 10.9966 85.9973 11.3652 86.2516C11.7337 86.4954 12.2052 86.718 12.7797 86.9193C13.3542 87.1207 14.0371 87.3009 14.8284 87.4599L17.5599 88.0322C19.4026 88.4137 20.9798 88.9172 22.2913 89.5425C23.6029 90.1678 24.676 90.9044 25.5107 91.7523C26.3453 92.5896 26.9577 93.5329 27.348 94.5821C27.749 95.6314 27.955 96.7761 27.9658 98.0161C27.955 100.157 27.4076 101.969 26.3236 103.453C25.2397 104.937 23.6896 106.066 21.6735 106.839C19.6682 107.613 17.2564 108 14.4382 108C11.544 108 9.01843 107.581 6.86138 106.744C4.71516 105.907 3.04589 104.619 1.85355 102.881C0.672046 101.132 0.0758762 98.8958 0.0650368 96.1719H8.64989C8.70408 97.1682 8.95881 98.0055 9.41407 98.6838C9.86932 99.3621 10.5089 99.8762 11.3327 100.226C12.1673 100.576 13.1591 100.751 14.3081 100.751C15.2728 100.751 16.0803 100.634 16.7307 100.401C17.3811 100.168 17.8743 99.8444 18.2103 99.431C18.5463 99.0177 18.7197 98.546 18.7306 98.0161C18.7197 97.518 18.5517 97.0834 18.2265 96.7125C17.9122 96.3309 17.3919 95.9918 16.6657 95.695C15.9394 95.3876 14.9584 95.1015 13.7228 94.8365L10.4059 94.137C7.45755 93.5117 5.13248 92.4677 3.43069 91.0051C1.73973 89.5319 0.899675 87.5235 0.910514 84.9798C0.899675 82.9131 1.46333 81.106 2.60147 79.5586C3.75045 78.0006 5.33843 76.787 7.36541 75.918C9.40323 75.0489 11.7391 74.6143 14.3731 74.6143C17.0613 74.6143 19.3864 75.0542 21.3483 75.9339C23.3103 76.8135 24.8224 78.0536 25.8846 79.654C26.9577 81.2438 27.4997 83.1038 27.5105 85.2342H18.8607Z" fill="url(#paint6_linear_69_2730)"/>
<path d="M29.1153 107.618V75.0595H53.1139V82.1817H38.1554V87.7778H51.8782V94.9001H38.1554V100.496H53.0488V107.618H29.1153Z" fill="url(#paint7_linear_69_2730)"/>
<path d="M55.3081 107.618V75.0595H64.3482V100.496H77.8108V107.618H55.3081Z" fill="url(#paint8_linear_69_2730)"/>
<path d="M79.1757 107.618V75.0595H88.2158V100.496H101.678V107.618H79.1757Z" fill="url(#paint9_linear_69_2730)"/>
<defs>
<linearGradient id="paint0_linear_69_2730" x1="54" y1="0" x2="54" y2="108" gradientUnits="userSpaceOnUse">
<stop stop-color="white"/>
<stop offset="1" stop-color="#E6E6E6"/>
</linearGradient>
<linearGradient id="paint1_linear_69_2730" x1="54" y1="0" x2="54" y2="108" gradientUnits="userSpaceOnUse">
<stop stop-color="white"/>
<stop offset="1" stop-color="#E6E6E6"/>
</linearGradient>
<linearGradient id="paint2_linear_69_2730" x1="54" y1="0" x2="54" y2="108" gradientUnits="userSpaceOnUse">
<stop stop-color="white"/>
<stop offset="1" stop-color="#E6E6E6"/>
</linearGradient>
<linearGradient id="paint3_linear_69_2730" x1="54" y1="0" x2="54" y2="108" gradientUnits="userSpaceOnUse">
<stop stop-color="white"/>
<stop offset="1" stop-color="#E6E6E6"/>
</linearGradient>
<linearGradient id="paint4_linear_69_2730" x1="54" y1="0" x2="54" y2="108" gradientUnits="userSpaceOnUse">
<stop stop-color="white"/>
<stop offset="1" stop-color="#E6E6E6"/>
</linearGradient>
<linearGradient id="paint5_linear_69_2730" x1="54" y1="0" x2="54" y2="108" gradientUnits="userSpaceOnUse">
<stop stop-color="white"/>
<stop offset="1" stop-color="#E6E6E6"/>
</linearGradient>
<linearGradient id="paint6_linear_69_2730" x1="54" y1="0" x2="54" y2="108" gradientUnits="userSpaceOnUse">
<stop stop-color="white"/>
<stop offset="1" stop-color="#E6E6E6"/>
</linearGradient>
<linearGradient id="paint7_linear_69_2730" x1="54" y1="0" x2="54" y2="108" gradientUnits="userSpaceOnUse">
<stop stop-color="white"/>
<stop offset="1" stop-color="#E6E6E6"/>
</linearGradient>
<linearGradient id="paint8_linear_69_2730" x1="54" y1="0" x2="54" y2="108" gradientUnits="userSpaceOnUse">
<stop stop-color="white"/>
<stop offset="1" stop-color="#E6E6E6"/>
</linearGradient>
<linearGradient id="paint9_linear_69_2730" x1="54" y1="0" x2="54" y2="108" gradientUnits="userSpaceOnUse">
<stop stop-color="white"/>
<stop offset="1" stop-color="#E6E6E6"/>
</linearGradient>
</defs>
</svg>
